<?xml version="1.0" encoding="UTF-8"?>
<svg version="1.1" xmlns="http://www.w3.org/2000/svg" width="500" height="500">
<path d="M0 0 C0.6285791 0.1453418 1.2571582 0.29068359 1.90478516 0.44042969 C18.67098124 4.43750998 32.60039349 12.32994297 46 23 C46.99 23.66 47.98 24.32 49 25 C49 26.32 49 27.64 49 29 C47.28428776 30.06368149 45.55176399 31.10028172 43.8125 32.125 C42.84957031 32.70507812 41.88664063 33.28515625 40.89453125 33.8828125 C38 35 38 35 35.3828125 34.34765625 C33.17288534 33.09777941 31.11928052 31.79908394 29.0625 30.3125 C7.83520825 15.89063567 -17.66300252 10.45748693 -43.015625 14.72265625 C-51.12673879 16.38022155 -58.67532809 19.14076426 -66 23 C-66.91136719 23.45246094 -67.82273437 23.90492188 -68.76171875 24.37109375 C-75.50355624 27.84074233 -81.24399107 32.08054768 -87 37 C-84.85613881 42.89561826 -81.62603109 47.73098712 -78.1015625 52.90234375 C-76.22024756 55.67536001 -74.4087835 58.4761997 -72.625 61.3125 C-70.21139014 65.13773948 -67.72881252 68.90707919 -65.20117188 72.65722656 C-61.57246375 78.04150261 -58.06812591 83.39061439 -55.02734375 89.13671875 C-54.01452945 90.97364811 -52.89330227 92.66017394 -51.6875 94.375 C-50 97 -50 97 -50 100 C-49.34 100 -48.68 100 -48 100 C-47.18162558 101.41328129 -46.37053781 102.83078346 -45.5625 104.25 C-45.11003906 105.03890625 -44.65757812 105.8278125 -44.19140625 106.640625 C-43.10688398 108.78833468 -42.46851284 110.65205061 -42 113 C-41.34 113 -40.68 113 -40 113 C-38.02 116.63 -36.04 120.26 -34 124 C-34 115.75 -34 107.5 -34 99 C-34.66 99 -35.32 99 -36 99 C-37.4646204 96.86278568 -38.80299851 94.72446004 -40.125 92.5 C-44.57591035 85.19247254 -49.23955151 78.04692008 -54 70.9375 C-55.02891357 69.39703003 -55.02891357 69.39703003 -56.07861328 67.82543945 C-59.11711331 63.28218953 -62.16653272 58.74723855 -65.25 54.234375 C-65.72179687 53.53965088 -66.19359375 52.84492676 -66.6796875 52.12915039 C-67.53303576 50.8742172 -68.39204106 49.62310393 -69.2578125 48.37670898 C-72 44.3359375 -72 44.3359375 -72 41 C-59.15986344 39.35416357 -59.15986344 39.35416357 -53 41 C-49.07383661 44.49454543 -47.14703352 48.3098457 -44.95947266 53.02880859 C-43.42839465 56.17433628 -41.49645778 59.02885417 -39.5625 61.9375 C-38.82431411 63.08385926 -38.08735022 64.23100626 -37.3515625 65.37890625 C-33.30662432 71.63348289 -29.14959151 77.81459638 -25 84 C-24.48953125 83.13761719 -23.9790625 82.27523437 -23.453125 81.38671875 C-19.00393378 73.90375152 -14.46005635 66.48654838 -9.8125 59.125 C-9.08305176 57.96810669 -9.08305176 57.96810669 -8.33886719 56.7878418 C-7.38086046 55.27553199 -6.40825969 53.77236301 -5.42089844 52.27905273 C-3.94403591 50.0059307 -3.94403591 50.0059307 -2.79003906 47.45727539 C-1.40702169 44.79389056 -0.26640446 42.97807408 2 41 C6.65474863 39.7757798 11.09375049 39.95941705 15.875 40.1875 C17.18114258 40.22359375 18.48728516 40.2596875 19.83300781 40.296875 C36.30833096 40.93637498 49.44671552 45.57926583 64 53 C64 53.66 64 54.32 64 55 C65.11375 55.37125 65.11375 55.37125 66.25 55.75 C69.23023087 57.10465039 70.89919252 58.5101541 73 61 C73 61.66 73 62.32 73 63 C73.66 63 74.32 63 75 63 C75 63.66 75 64.32 75 65 C75.61875 65.226875 76.2375 65.45375 76.875 65.6875 C79.61410209 67.37929835 80.05024472 68.99244161 81 72 C81.66 72 82.32 72 83 72 C94.36614662 95.07483465 96.95577986 115.76135545 88.90234375 140.3515625 C80.90179846 161.34282371 62.16680602 178.13904884 42.14672852 187.45385742 C37.16807844 189.65355463 32.11208498 191.34039103 26.875 192.8125 C25.8387146 193.10459351 25.8387146 193.10459351 24.78149414 193.40258789 C18.27554122 195.11881731 11.65453557 196.05219392 5 197 C5.00523682 197.78648926 5.01047363 198.57297852 5.01586914 199.38330078 C5.0367201 202.96385899 5.04968601 206.54440438 5.0625 210.125 C5.07087891 211.3625 5.07925781 212.6 5.08789062 213.875 C5.09111328 215.07382812 5.09433594 216.27265625 5.09765625 217.5078125 C5.10289307 218.60754395 5.10812988 219.70727539 5.11352539 220.84033203 C5.0008558 223.97618105 4.58626376 226.92059383 4 230 C2.4176994 230.33820166 0.83410625 230.67035939 -0.75 231 C-1.63171875 231.185625 -2.5134375 231.37125 -3.421875 231.5625 C-6 232 -6 232 -10 232 C-10.1543625 217.8305541 -10.30230741 203.66105347 -10.4429636 189.49146461 C-10.50846653 182.91143012 -10.5759917 176.33142952 -10.64819336 169.75146484 C-10.7178422 163.39728318 -10.78210717 157.04306747 -10.84269524 150.68879318 C-10.86670541 148.26879283 -10.89263056 145.84881067 -10.92053413 143.42885208 C-10.95938983 140.03023367 -10.99133516 136.63161337 -11.02172852 133.23291016 C-11.03467453 132.24028168 -11.04762054 131.2476532 -11.06095886 130.22494507 C-11.13809544 119.93234363 -10.9129105 112.12022072 -5.0625 103.4375 C-4.0621662 101.88256161 -3.06351033 100.32654267 -2.06640625 98.76953125 C-1.5573877 97.98529785 -1.04836914 97.20106445 -0.52392578 96.39306641 C2.37423742 91.84199373 5.03932903 87.15316192 7.73803711 82.48217773 C8.48887515 81.19312141 9.24882613 79.90930688 10.02001953 78.63232422 C10.8257668 77.29021504 11.5872615 75.92163678 12.3359375 74.546875 C15.72357691 71.39780175 20.8293964 72.59292563 25.1953125 72.73828125 C29.67142595 73.04618638 33.73205398 73.63285507 38 75 C39.134375 75.350625 40.26875 75.70125 41.4375 76.0625 C49.9893335 79.98956573 57.68987537 88.26662137 61.18359375 96.9375 C65.59794464 109.89033582 64.87024637 120.97979717 58.84375 133.37890625 C57.95325934 134.95316653 56.98693996 136.4843422 56 138 C55.34 138 54.68 138 54 138 C53.73960937 138.58910156 53.47921875 139.17820312 53.2109375 139.78515625 C48.87339177 147.71866732 40.17941616 151.2697673 32 154 C28.42990339 154.84655243 25.14586845 155.11813334 21.48046875 155.09765625 C20.45888672 155.09443359 19.43730469 155.09121094 18.38476562 155.08789062 C17.32966797 155.07951172 16.27457031 155.07113281 15.1875 155.0625 C14.11306641 155.05798828 13.03863281 155.05347656 11.93164062 155.04882812 C9.28770317 155.03707729 6.64388048 155.02064787 4 155 C4.08378906 155.77601563 4.16757812 156.55203125 4.25390625 157.3515625 C5.04083559 165.69899013 4.81257018 173.66177984 4 182 C29.5511324 176.65032841 52.45878251 169.37286417 67.8125 146.6875 C76.66740833 131.83882117 80.76722325 114.03578263 76.5 97.00439453 C71.78151148 81.35499962 61.32858875 70.49469366 47.125 62.75 C45.76432176 62.13399878 44.38730487 61.55343289 43 61 C41.65615234 60.46052734 41.65615234 60.46052734 40.28515625 59.91015625 C30.64184245 56.49304253 21.12240415 56.21377833 11 56 C10.59007812 57.0981604 10.59007812 57.0981604 10.171875 58.21850586 C9.05875065 60.86055287 7.79978174 63.09825547 6.25 65.50390625 C5.7240625 66.32697266 5.198125 67.15003906 4.65625 67.99804688 C4.1096875 68.84431641 3.563125 69.69058594 3 70.5625 C1.91495625 72.25020366 0.83156038 73.93896816 -0.25 75.62890625 C-0.72953125 76.37213135 -1.2090625 77.11535645 -1.703125 77.88110352 C-2.92447767 79.876608 -3.98884421 81.89153746 -5 84 C-5.66 84 -6.32 84 -7 84 C-7.268125 84.886875 -7.53625 85.77375 -7.8125 86.6875 C-8.9250635 89.7909666 -10.10195778 92.31110685 -12 95 C-12.66 95 -13.32 95 -14 95 C-14.12375 95.598125 -14.2475 96.19625 -14.375 96.8125 C-15 99 -15 99 -17 102 C-17.31173456 104.4770753 -17.31173456 104.4770753 -17.2784729 107.29606628 C-17.28963638 108.3940303 -17.30079987 109.49199432 -17.31230164 110.62322998 C-17.31446182 111.82804016 -17.31662201 113.03285034 -17.31884766 114.27416992 C-17.32889328 115.54257217 -17.3389389 116.81097443 -17.34928894 118.11781311 C-17.37661857 121.59685047 -17.39174704 125.07584728 -17.40471697 128.55496383 C-17.4203346 132.19052397 -17.44712916 135.82600113 -17.4727478 139.46150208 C-17.51955987 146.34623503 -17.55629219 153.23098356 -17.58942068 160.11579448 C-17.62762494 167.95373469 -17.67703952 175.79159161 -17.72740483 183.62946165 C-17.83076079 199.75291464 -17.92000923 215.87641381 -18 232 C-21.13405623 232.04983256 -24.26800793 232.07926726 -27.40234375 232.10546875 C-28.27612671 232.11960815 -29.14990967 232.13374756 -30.0501709 232.14831543 C-42.19349614 232.22408843 -53.81727152 229.60402846 -64.6875 224.15234375 C-66.80970925 223.09482394 -68.88728854 222.27358384 -71.125 221.5 C-75.6977351 219.8587486 -79.81836279 217.44896809 -84 215 C-84 214.34 -84 213.68 -84 213 C-84.71542969 212.75507813 -85.43085938 212.51015625 -86.16796875 212.2578125 C-94.34348886 208.62675391 -102.27678384 200.83834137 -108 194 C-108 193.34 -108 192.68 -108 192 C-108.66 192 -109.32 192 -110 192 C-114 187.52941176 -114 187.52941176 -114 185 C-114.66 185 -115.32 185 -116 185 C-116.66 183.02 -117.32 181.04 -118 179 C-118.66 179 -119.32 179 -120 179 C-120.25394531 178.48050781 -120.50789063 177.96101562 -120.76953125 177.42578125 C-121.11371094 176.72839844 -121.45789063 176.03101563 -121.8125 175.3125 C-122.14894531 174.62800781 -122.48539063 173.94351563 -122.83203125 173.23828125 C-123.98539369 170.95425693 -123.98539369 170.95425693 -125.44921875 168.69921875 C-127.33090372 165.42404416 -128.68847852 162.03020341 -130 158.5 C-130.26127686 157.79875 -130.52255371 157.0975 -130.79174805 156.375 C-141.03585443 128.14537518 -140.28741991 93.95426957 -127.88818359 66.54199219 C-119.79367019 49.60833663 -108.97358493 33.61216791 -94 22 C-93.34 22 -92.68 22 -92 22 C-92 21.34 -92 20.68 -92 20 C-89.6990791 18.32632483 -87.41670666 16.80367716 -85 15.3125 C-84.2788501 14.86696777 -83.5577002 14.42143555 -82.81469727 13.96240234 C-58.21720362 -0.88316935 -28.27357944 -6.74025106 0 0 Z M-100 50 C-100 50.66 -100 51.32 -100 52 C-100.66 52 -101.32 52 -102 52 C-104.2773501 54.81509993 -104.2773501 54.81509993 -104 58 C-104.66 58 -105.32 58 -106 58 C-115.49462496 76.14109483 -122.62332359 93.85493339 -122.4375 114.6875 C-122.42847656 115.91065918 -122.41945312 117.13381836 -122.41015625 118.39404297 C-121.90902804 144.7902753 -111.25427644 168.87806143 -93 188 C-92.34 188 -91.68 188 -91 188 C-91 188.66 -91 189.32 -91 190 C-87.52001493 193.63633539 -87.52001493 193.63633539 -83 195 C-83 195.66 -83 196.32 -83 197 C-80.65705089 198.69179182 -78.33111564 200.2374705 -75.875 201.75 C-75.14941895 202.19811035 -74.42383789 202.6462207 -73.67626953 203.10791016 C-61.5992374 210.40681005 -47.32220128 217.21208835 -33 217 C-32.86023743 208.84554613 -32.75399791 200.69160259 -32.68912697 192.53624249 C-32.65797275 188.74825562 -32.61579928 184.96109528 -32.54736328 181.17358398 C-32.48159121 177.51007424 -32.44617472 173.84735325 -32.43073654 170.18329811 C-32.41975241 168.79392917 -32.39830539 167.40459753 -32.36561966 166.01556969 C-32.14938455 156.43477007 -33.52655255 149.94938306 -39 142 C-39.66 142 -40.32 142 -41 142 C-41.66 140.02 -42.32 138.04 -43 136 C-43.66 136 -44.32 136 -45 136 C-45.23460937 135.32066406 -45.46921875 134.64132812 -45.7109375 133.94140625 C-47.2956258 130.32543568 -49.404529 127.1819382 -51.625 123.9375 C-52.07230469 123.27484131 -52.51960938 122.61218262 -52.98046875 121.92944336 C-54.31651206 119.95035784 -55.65785161 117.97494839 -57 116 C-62.43677151 107.95683616 -67.67646358 99.81090528 -72.80078125 91.56640625 C-73.37046631 90.65205811 -73.37046631 90.65205811 -73.95166016 89.71923828 C-74.89249283 88.17630775 -75.78366387 86.60335315 -76.66796875 85.02734375 C-77.10753906 84.35832031 -77.54710937 83.68929687 -78 83 C-78.66 83 -79.32 83 -80 83 C-89.21288038 102.48178262 -91.92219316 120.3194105 -85 141 C-81.03134569 150.98034369 -74.94724943 159.74524948 -67 167 C-66.34 167 -65.68 167 -65 167 C-65 167.66 -65 168.32 -65 169 C-57.84565754 174.18073075 -50.30198752 178.02615372 -42 181 C-41.505 188.425 -41.505 188.425 -41 196 C-53.96188875 192.03942288 -64.62437208 187.13320308 -75.16015625 178.3828125 C-77.05740561 176.80464609 -77.05740561 176.80464609 -80 176 C-80 175.34 -80 174.68 -80 174 C-80.66 174 -81.32 174 -82 174 C-82 173.34 -82 172.68 -82 172 C-82.66 172 -83.32 172 -84 172 C-84.23976562 171.47921875 -84.47953125 170.9584375 -84.7265625 170.421875 C-86.4052283 167.22932041 -88.3958077 164.26039853 -90.375 161.25 C-97.97152989 149.48840861 -103.43176825 137.27991083 -104 123 C-104.03996094 122.08992188 -104.07992187 121.17984375 -104.12109375 120.2421875 C-104.50087714 103.12959481 -100.46981537 84.32215288 -89.22265625 70.875 C-87.76672809 69.09954931 -87.76672809 69.09954931 -88.29882812 67.09643555 C-89.43993459 63.68463847 -91.48150799 60.80311689 -93.4375 57.8125 C-93.84548828 57.17119141 -94.25347656 56.52988281 -94.67382812 55.86914062 C-96.79309466 52.37321297 -96.79309466 52.37321297 -100 50 Z M24 88 C20.11853044 93.35799401 16.44128957 98.68101411 13.3984375 104.5625 C12 107 12 107 9.9140625 109.75 C2.72937811 119.63209221 3.15017284 128.1614355 4 140 C7.2914911 140.08857863 10.58266805 140.1409104 13.875 140.1875 C14.7928125 140.21263672 15.710625 140.23777344 16.65625 140.26367188 C24.50770914 140.34660982 32.29349715 139.45884612 38.625 134.4375 C41.23262158 132.3284632 41.23262158 132.3284632 41 130 C41.66 130 42.32 130 43 130 C43.6509259 128.75264433 44.29551669 127.50198168 44.9375 126.25 C45.29714844 125.55390625 45.65679687 124.8578125 46.02734375 124.140625 C48.67117191 118.32207948 49.13034378 111.59807451 47.2109375 105.48828125 C45.58652542 101.73725335 43.85033023 97.97989069 41 95 C40.34 95 39.68 95 39 95 C39 94.34 39 93.68 39 93 C33.95859836 90.18467181 29.77378925 88.4811491 24 88 Z " fill="#EAECED" transform="translate(274,129)"/>
<path d="M0 0 C1.98 0.66 3.96 1.32 6 2 C6 6.95 6 11.9 6 17 C4.02 16.67 2.04 16.34 0 16 C1.32 15.67 2.64 15.34 4 15 C4 10.71 4 6.42 4 2 C2.68 1.67 1.36 1.34 0 1 C0 0.67 0 0.34 0 0 Z " fill="#939DA7" transform="translate(227,308)"/>
<path d="M0 0 C1 2 1 2 0.0625 5.125 C-0.288125 6.07375 -0.63875 7.0225 -1 8 C-1.66 8 -2.32 8 -3 8 C-3.28875 8.639375 -3.5775 9.27875 -3.875 9.9375 C-5 12 -5 12 -7 13 C-5.58832253 7.73829306 -3.25149768 4.27828642 0 0 Z " fill="#949DA3" transform="translate(158,175)"/>
<path d="M0 0 C3.48354375 5.22531563 4.30934332 10.8131337 4 17 C0.87232819 13.61168887 0.82294984 11.51477907 1 7 C0.69836866 4.66235715 0.37238718 2.32741989 0 0 Z " fill="#97A0AA" transform="translate(363,216)"/>
<path d="M0 0 C0 3.97054597 -1.3139381 5.16471244 -4 8 C-6.140625 8.6484375 -6.140625 8.6484375 -8 9 C-7.04270084 7.87411986 -6.08412105 6.7493285 -5.125 5.625 C-4.59132813 4.99851562 -4.05765625 4.37203125 -3.5078125 3.7265625 C-2.38567993 2.44163349 -1.20628025 1.20628025 0 0 Z " fill="#9198A8" transform="translate(335,284)"/>
<path d="M0 0 C0 3 0 3 -1.1875 4.625 C-3.41406801 6.31412056 -5.25851328 6.62952882 -8 7 C-8 6.34 -8 5.68 -8 5 C-6.25 3.7109375 -6.25 3.7109375 -4 2.375 C-3.2575 1.92898437 -2.515 1.48296875 -1.75 1.0234375 C-1.1725 0.68570313 -0.595 0.34796875 0 0 Z " fill="#A1ABAF" transform="translate(190,144)"/>
<path d="M0 0 C1 2 1 2 0.25 4.5625 C-1 7 -1 7 -4 8 C-2.87548273 5.0280615 -1.77706209 2.66559313 0 0 Z " fill="#92A1AE" transform="translate(286,205)"/>
</svg>
